<?xml version="1.0" encoding="UTF-8"?>
<svg id="_圖層_1" xmlns="http://www.w3.org/2000/svg" version="1.1" viewBox="0 0 255.8 191.9">
  <!-- Generator: Adobe Illustrator 30.0.0, SVG Export Plug-In . SVG Version: 2.1.1 Build 123)  -->
  <g id="fvtx5G.tif">
    <g>
      <path d="M255.7,53.9v117.1c0,8.5-10.1,18.7-18.4,20.1-71.6,1.5-143.4.2-215.1.6-9.7-.1-22.2-10.8-22.2-20.7V53.9l105.4,70.1c13.7,9.5,31.2,9.5,44.9,0l105.4-70.1Z"/>
      <path d="M21.4.1h212.1c23.3,3.5,30.6,28.4,10.9,43.2-32.6,24.4-70.3,44.8-103.4,68.9-7,3.9-13.1,5.2-20.9,2.6C81.6,90.8,43.9,64.9,6.3,39.4-7,25,2.1,2.2,21.4.1Z"/>
    </g>
  </g>
</svg>