<?xml version="1.0" encoding="UTF-8"?>
<svg id="_圖層_1" xmlns="http://www.w3.org/2000/svg" version="1.1" viewBox="0 0 255.8 255.7">
  <!-- Generator: Adobe Illustrator 30.0.0, SVG Export Plug-In . SVG Version: 2.1.1 Build 123)  -->
  <g id="_x32_0va3G.tif">
    <path d="M16,.2l222.5-.2c9.3.7,16.4,7.9,17.2,17.2v220.7c-.7,9.8-7.5,16.7-17.2,17.7H17.9c-8.2-.6-14.6-5.6-17.1-13.4C-.3,166.1-.3,89.5.8,13.4,3,6.4,8.7,1.3,16,.2ZM72.4,54.6c-19.8,2.4-19.3,31,1.4,32.3,25.8,1.6,25.2-35.5-1.4-32.3ZM202.9,193.2v-61.7c0-4-3.3-13.6-5.2-17.2-7.9-14.8-26.1-20.3-41.7-15.2-7.6,2.5-12,7.3-17,13.2v-13h-31v93.9h31v-53.7c0-11.8,11.8-20.8,23.1-16.6,5.5,2,9.8,9.4,9.8,15.1v55.2h31ZM91,193.2v-93.1l-.7-.7h-30l-.7.7v93.1h31.5Z"/>
  </g>
</svg>