<?xml version="1.0" encoding="UTF-8"?>
<svg id="_圖層_1" xmlns="http://www.w3.org/2000/svg" version="1.1" viewBox="0 0 255.7 255.7">
  <!-- Generator: Adobe Illustrator 30.3.0, SVG Export Plug-In . SVG Version: 2.1.3 Build 182)  -->
  <g id="_x32_0va3G.tif">
    <path d="M238.5,0L25.7.3h-10C8.9,1.4,3.1,6.5.7,13.4v7.5c-.7,35.7-.7,71.4-.7,106.7s0,71.4.7,107.1v7.6c2.4,7.5,8.9,12.7,17.2,13.4h220.7c10-1,16.8-7.9,17.2-17.8V17.2c-.7-9.3-7.9-16.5-17.2-17.2ZM133.3,213c-15.8.9-31.6-2.5-46.2-10.2l-45.6,12.1,12.1-45c-8.4-14.3-12.1-31-11.2-47.1,2.2-47.5,42.8-84,90.2-81.9,44.3,2.2,79.7,37.8,81.9,82.2,2.2,46.8-34.1,87.1-81.3,89.9Z"/>
  </g>
  <g id="_x30_ogLi8.tif">
    <path d="M174.7,161.3c-1.7,4.8-10,10-15.4,11-5.5,1-10.6.7-15.4-1-12.7-3.8-21.6-7.9-31.9-16.5-8.6-7.2-15.8-15.4-22.3-24.7-7.9-11-13-23.7-6.9-36.7,1.7-3.8,6.9-10.3,11-10.3h6.9c1.4,0,2.7,1.4,3.4,2.7l8.6,20.6c1,2.7-4.8,8.9-7.6,12-.7.7-.7,2.1-.3,3.1,7.9,13.4,17.8,22.7,32.3,28.5,1.4.7,3.4,1.7,4.8.3,3.4-3.4,6.2-7.2,9.3-11,1-1,3.1-1,4.5-.3l19.9,9.6c2.4,1.4,1,8.9-.7,12.7Z"/>
  </g>
</svg>